{
	"asset":{
		"generator":"Khronos glTF Blender I/O v4.3.47",
		"version":"2.0"
	},
	"scene":0,
	"scenes":[
		{
			"name":"Scene",
			"nodes":[
				0,
				6,
				7,
				8,
				9
			]
		}
	],
	"nodes":[
		{
			"mesh":0,
			"name":"Floor",
			"scale":[
				18.169885635375977,
				0.09084945172071457,
				18.169885635375977
			]
		},
		{
			"mesh":1,
			"name":"Fences",
			"scale":[
				0.19999998807907104,
				1,
				0.19999998807907104
			],
			"translation":[
				0,
				1.192745327949524,
				0
			]
		},
		{
			"name":"FencesPath",
			"translation":[
				0,
				0.10000000149011612,
				0
			]
		},
		{
			"mesh":2,
			"name":"TreeTrunk",
			"scale":[
				0.5406049489974976,
				0.5406049489974976,
				0.5406049489974976
			],
			"translation":[
				-8.702281951904297,
				0,
				-8.115574836730957
			]
		},
		{
			"mesh":3,
			"name":"TreeTrunk.001",
			"rotation":[
				0,
				0.9939729571342468,
				0,
				0.10962647199630737
			],
			"scale":[
				0.7010155916213989,
				0.7010155916213989,
				0.7010155916213989
			],
			"translation":[
				9.255037307739258,
				0,
				8.749133110046387
			]
		},
		{
			"mesh":4,
			"name":"TreeTrunk.002",
			"rotation":[
				0,
				0.61655592918396,
				0,
				0.7873111367225647
			],
			"scale":[
				0.611778199672699,
				0.6117780804634094,
				0.611778199672699
			],
			"translation":[
				8.432367324829102,
				0,
				-8.488347053527832
			]
		},
		{
			"children":[
				1,
				2,
				3,
				4,
				5
			],
			"name":"Wall"
		},
		{
			"mesh":5,
			"name":"TreeBranch",
			"rotation":[
				0.23961466550827026,
				0.2845776677131653,
				-0.8477386832237244,
				0.3780737519264221
			],
			"scale":[
				3.407949686050415,
				3.407949924468994,
				3.407949686050415
			],
			"translation":[
				-7.9937310218811035,
				6.77989387512207,
				-6.589306354522705
			]
		},
		{
			"mesh":6,
			"name":"TreeBranch.001",
			"rotation":[
				-0.36013084650039673,
				0.07511230558156967,
				-0.27809157967567444,
				0.8873156309127808
			],
			"scale":[
				3.4898903369903564,
				3.4898900985717773,
				3.4898903369903564
			],
			"translation":[
				9.155381202697754,
				7.293121814727783,
				8.604690551757812
			]
		},
		{
			"mesh":7,
			"name":"TreeBranch.002",
			"rotation":[
				-0.5363718271255493,
				0.4341127872467041,
				-0.26806968450546265,
				0.6723020672798157
			],
			"scale":[
				1.864959478378296,
				1.8649598360061646,
				1.864959716796875
			],
			"translation":[
				10.189587593078613,
				7.809844970703125,
				-8.851090431213379
			]
		}
	],
	"materials":[
		{
			"doubleSided":true,
			"name":"Material",
			"normalTexture":{
				"index":0
			},
			"pbrMetallicRoughness":{
				"baseColorTexture":{
					"index":1
				},
				"metallicFactor":0
			}
		},
		{
			"doubleSided":true,
			"name":"Material.001",
			"normalTexture":{
				"index":2
			},
			"pbrMetallicRoughness":{
				"baseColorTexture":{
					"index":3
				},
				"metallicFactor":0
			}
		},
		{
			"doubleSided":true,
			"name":"Material.002",
			"normalTexture":{
				"index":4
			},
			"pbrMetallicRoughness":{
				"baseColorTexture":{
					"index":5
				},
				"metallicFactor":0
			}
		},
		{
			"alphaMode":"BLEND",
			"doubleSided":true,
			"name":"Tree Branch",
			"pbrMetallicRoughness":{
				"baseColorTexture":{
					"index":6
				},
				"metallicFactor":0
			}
		}
	],
	"meshes":[
		{
			"name":"Cube",
			"primitives":[
				{
					"attributes":{
						"POSITION":0,
						"NORMAL":1,
						"TEXCOORD_0":2
					},
					"indices":3,
					"material":0
				}
			]
		},
		{
			"name":"Cube.003",
			"primitives":[
				{
					"attributes":{
						"POSITION":4,
						"NORMAL":5,
						"TEXCOORD_0":6
					},
					"indices":7,
					"material":1
				}
			]
		},
		{
			"name":"Cube.001",
			"primitives":[
				{
					"attributes":{
						"POSITION":8,
						"NORMAL":9,
						"TEXCOORD_0":10
					},
					"indices":11,
					"material":2
				}
			]
		},
		{
			"name":"Cube.004",
			"primitives":[
				{
					"attributes":{
						"POSITION":12,
						"NORMAL":13,
						"TEXCOORD_0":14
					},
					"indices":11,
					"material":2
				}
			]
		},
		{
			"name":"Cube.005",
			"primitives":[
				{
					"attributes":{
						"POSITION":15,
						"NORMAL":16,
						"TEXCOORD_0":17
					},
					"indices":11,
					"material":2
				}
			]
		},
		{
			"name":"Tree Branch.001",
			"primitives":[
				{
					"attributes":{
						"POSITION":18,
						"NORMAL":19,
						"TEXCOORD_0":20
					},
					"indices":21,
					"material":3
				}
			]
		},
		{
			"name":"Tree Branch.003",
			"primitives":[
				{
					"attributes":{
						"POSITION":22,
						"NORMAL":23,
						"TEXCOORD_0":24
					},
					"indices":25,
					"material":3
				}
			]
		},
		{
			"name":"Tree Branch.004",
			"primitives":[
				{
					"attributes":{
						"POSITION":26,
						"NORMAL":27,
						"TEXCOORD_0":28
					},
					"indices":29,
					"material":3
				}
			]
		}
	],
	"textures":[
		{
			"sampler":0,
			"source":0
		},
		{
			"sampler":0,
			"source":1
		},
		{
			"sampler":0,
			"source":2
		},
		{
			"sampler":0,
			"source":3
		},
		{
			"sampler":0,
			"source":2
		},
		{
			"sampler":0,
			"source":3
		},
		{
			"sampler":1,
			"source":4
		}
	],
	"images":[
		{
			"mimeType":"image/png",
			"name":"brown_mud_leaves_01_nor_gl_1k",
			"uri":"brown_mud_leaves_01_nor_gl_1k.png"
		},
		{
			"mimeType":"image/jpeg",
			"name":"brown_mud_leaves_01_diff_1k",
			"uri":"brown_mud_leaves_01_diff_1k.jpg"
		},
		{
			"mimeType":"image/png",
			"name":"bark_willow_02_nor_gl_1k",
			"uri":"bark_willow_02_nor_gl_1k.png"
		},
		{
			"mimeType":"image/jpeg",
			"name":"bark_willow_02_diff_1k",
			"uri":"bark_willow_02_diff_1k.jpg"
		},
		{
			"mimeType":"image/png",
			"name":"Tree Branch",
			"uri":"Tree%20Branch.png"
		}
	],
	"accessors":[
		{
			"bufferView":0,
			"componentType":5126,
			"count":38,
			"max":[
				1,
				1,
				1
			],
			"min":[
				-1,
				-1,
				-1
			],
			"type":"VEC3"
		},
		{
			"bufferView":1,
			"componentType":5126,
			"count":38,
			"type":"VEC3"
		},
		{
			"bufferView":2,
			"componentType":5126,
			"count":38,
			"type":"VEC2"
		},
		{
			"bufferView":3,
			"componentType":5123,
			"count":60,
			"type":"SCALAR"
		},
		{
			"bufferView":4,
			"componentType":5126,
			"count":3672,
			"max":[
				81.36248779296875,
				1.4000006914138794,
				90.91022491455078
			],
			"min":[
				-87.63107299804688,
				-1.1000001430511475,
				-83.67667388916016
			],
			"type":"VEC3"
		},
		{
			"bufferView":5,
			"componentType":5126,
			"count":3672,
			"type":"VEC3"
		},
		{
			"bufferView":6,
			"componentType":5126,
			"count":3672,
			"type":"VEC2"
		},
		{
			"bufferView":7,
			"componentType":5123,
			"count":5508,
			"type":"SCALAR"
		},
		{
			"bufferView":8,
			"componentType":5126,
			"count":1730,
			"max":[
				4.316054821014404,
				22.223447799682617,
				6.415706157684326
			],
			"min":[
				-6.806308269500732,
				0,
				-7.817629814147949
			],
			"type":"VEC3"
		},
		{
			"bufferView":9,
			"componentType":5126,
			"count":1730,
			"type":"VEC3"
		},
		{
			"bufferView":10,
			"componentType":5126,
			"count":1730,
			"type":"VEC2"
		},
		{
			"bufferView":11,
			"componentType":5123,
			"count":3948,
			"type":"SCALAR"
		},
		{
			"bufferView":12,
			"componentType":5126,
			"count":1730,
			"max":[
				4.316054821014404,
				22.223447799682617,
				6.415706157684326
			],
			"min":[
				-6.806308269500732,
				0,
				-7.817629814147949
			],
			"type":"VEC3"
		},
		{
			"bufferView":13,
			"componentType":5126,
			"count":1730,
			"type":"VEC3"
		},
		{
			"bufferView":14,
			"componentType":5126,
			"count":1730,
			"type":"VEC2"
		},
		{
			"bufferView":15,
			"componentType":5126,
			"count":1730,
			"max":[
				4.316054821014404,
				22.223447799682617,
				6.415706157684326
			],
			"min":[
				-6.806308269500732,
				0,
				-7.817629814147949
			],
			"type":"VEC3"
		},
		{
			"bufferView":16,
			"componentType":5126,
			"count":1730,
			"type":"VEC3"
		},
		{
			"bufferView":17,
			"componentType":5126,
			"count":1730,
			"type":"VEC2"
		},
		{
			"bufferView":18,
			"componentType":5126,
			"count":10500,
			"max":[
				2.0476651191711426,
				1.0593557357788086,
				0.8830052018165588
			],
			"min":[
				-1.579530954360962,
				-1.6922252178192139,
				-1.9455188512802124
			],
			"type":"VEC3"
		},
		{
			"bufferView":19,
			"componentType":5126,
			"count":10500,
			"type":"VEC3"
		},
		{
			"bufferView":20,
			"componentType":5126,
			"count":10500,
			"type":"VEC2"
		},
		{
			"bufferView":21,
			"componentType":5123,
			"count":22500,
			"type":"SCALAR"
		},
		{
			"bufferView":22,
			"componentType":5126,
			"count":10500,
			"max":[
				1.4985657930374146,
				2.553788423538208,
				2.5681910514831543
			],
			"min":[
				-2.5073091983795166,
				-1.4150524139404297,
				-1.5485025644302368
			],
			"type":"VEC3"
		},
		{
			"bufferView":23,
			"componentType":5126,
			"count":10500,
			"type":"VEC3"
		},
		{
			"bufferView":24,
			"componentType":5126,
			"count":10500,
			"type":"VEC2"
		},
		{
			"bufferView":25,
			"componentType":5123,
			"count":22500,
			"type":"SCALAR"
		},
		{
			"bufferView":26,
			"componentType":5126,
			"count":10500,
			"max":[
				1.9357553720474243,
				2.702676296234131,
				3.2342700958251953
			],
			"min":[
				-4.3848395347595215,
				-2.7765121459960938,
				-4.272616863250732
			],
			"type":"VEC3"
		},
		{
			"bufferView":27,
			"componentType":5126,
			"count":10500,
			"type":"VEC3"
		},
		{
			"bufferView":28,
			"componentType":5126,
			"count":10500,
			"type":"VEC2"
		},
		{
			"bufferView":29,
			"componentType":5123,
			"count":22500,
			"type":"SCALAR"
		}
	],
	"bufferViews":[
		{
			"buffer":0,
			"byteLength":456,
			"byteOffset":0,
			"target":34962
		},
		{
			"buffer":0,
			"byteLength":456,
			"byteOffset":456,
			"target":34962
		},
		{
			"buffer":0,
			"byteLength":304,
			"byteOffset":912,
			"target":34962
		},
		{
			"buffer":0,
			"byteLength":120,
			"byteOffset":1216,
			"target":34963
		},
		{
			"buffer":0,
			"byteLength":44064,
			"byteOffset":1336,
			"target":34962
		},
		{
			"buffer":0,
			"byteLength":44064,
			"byteOffset":45400,
			"target":34962
		},
		{
			"buffer":0,
			"byteLength":29376,
			"byteOffset":89464,
			"target":34962
		},
		{
			"buffer":0,
			"byteLength":11016,
			"byteOffset":118840,
			"target":34963
		},
		{
			"buffer":0,
			"byteLength":20760,
			"byteOffset":129856,
			"target":34962
		},
		{
			"buffer":0,
			"byteLength":20760,
			"byteOffset":150616,
			"target":34962
		},
		{
			"buffer":0,
			"byteLength":13840,
			"byteOffset":171376,
			"target":34962
		},
		{
			"buffer":0,
			"byteLength":7896,
			"byteOffset":185216,
			"target":34963
		},
		{
			"buffer":0,
			"byteLength":20760,
			"byteOffset":193112,
			"target":34962
		},
		{
			"buffer":0,
			"byteLength":20760,
			"byteOffset":213872,
			"target":34962
		},
		{
			"buffer":0,
			"byteLength":13840,
			"byteOffset":234632,
			"target":34962
		},
		{
			"buffer":0,
			"byteLength":20760,
			"byteOffset":248472,
			"target":34962
		},
		{
			"buffer":0,
			"byteLength":20760,
			"byteOffset":269232,
			"target":34962
		},
		{
			"buffer":0,
			"byteLength":13840,
			"byteOffset":289992,
			"target":34962
		},
		{
			"buffer":0,
			"byteLength":126000,
			"byteOffset":303832,
			"target":34962
		},
		{
			"buffer":0,
			"byteLength":126000,
			"byteOffset":429832,
			"target":34962
		},
		{
			"buffer":0,
			"byteLength":84000,
			"byteOffset":555832,
			"target":34962
		},
		{
			"buffer":0,
			"byteLength":45000,
			"byteOffset":639832,
			"target":34963
		},
		{
			"buffer":0,
			"byteLength":126000,
			"byteOffset":684832,
			"target":34962
		},
		{
			"buffer":0,
			"byteLength":126000,
			"byteOffset":810832,
			"target":34962
		},
		{
			"buffer":0,
			"byteLength":84000,
			"byteOffset":936832,
			"target":34962
		},
		{
			"buffer":0,
			"byteLength":45000,
			"byteOffset":1020832,
			"target":34963
		},
		{
			"buffer":0,
			"byteLength":126000,
			"byteOffset":1065832,
			"target":34962
		},
		{
			"buffer":0,
			"byteLength":126000,
			"byteOffset":1191832,
			"target":34962
		},
		{
			"buffer":0,
			"byteLength":84000,
			"byteOffset":1317832,
			"target":34962
		},
		{
			"buffer":0,
			"byteLength":45000,
			"byteOffset":1401832,
			"target":34963
		}
	],
	"samplers":[
		{
			"magFilter":9729,
			"minFilter":9987
		},
		{
			"magFilter":9729,
			"minFilter":9987,
			"wrapS":33071,
			"wrapT":33071
		}
	],
	"buffers":[
		{
			"byteLength":1446832,
			"uri":"enclosure.bin"
		}
	]
}
